# xmcd
#
# Track frame offsets: 
#        150
#        29734
#        51300
#        72956
#        108224
#        141291
#        169141
#        189617
#        215657
#        243648
#
# Disc length: 3626 seconds
#
# Revision: 5
# Processed by: cddbd v1.5.2PL0 Copyright (c) Steve Scherf et al.
# Submitted via: ExactAudioCopy v0.99pb5
#
DISCID=9d0e280a
DTITLE=McCoy Tyner, Bobby Hutcherson, Charnett Moffett, Eric Harland /
DTITLE=Land Of Giants - McCoy Tyner, Bobby Hutcherson, Charnett Moffe
DTITLE=tt, Eric Harland
DYEAR=2002
DGENRE=Piano
TTITLE0=Serra Do Mar
TTITLE1=December
TTITLE2=Steppin'
TTITLE3=If I Were a Bell
TTITLE4=Manalyuca
TTITLE5=Back Bay Blues
TTITLE6=For All We Know
TTITLE7=The Search
TTITLE8=Contemplation
TTITLE9=In a Mellow Tone
EXTD=McCoy Tyner p - Bobby Hutcherson vib - Charnett Moffet b - Eric Harl
EXTD=and dr;
EXTT0=
EXTT1=
EXTT2=
EXTT3=
EXTT4=
EXTT5=
EXTT6=
EXTT7=
EXTT8=
EXTT9=
PLAYORDER=
